<svg id="Layer_1" data-name="Layer 1" xmlns="http://www.w3.org/2000/svg" viewBox="0 0 436.39 85.16" width="500" height="100"><defs><style>.cls-1{fill:#58a5da;}.cls-2{fill:#2c3246;}.cls-3{fill:#59a5d9;stroke-width:3px;}.cls-3,.cls-4{stroke:#59a5d9;}.cls-3,.cls-4,.cls-5{stroke-miterlimit:10;}.cls-4,.cls-5{fill:none;stroke-width:10px;}.cls-4{stroke-linecap:round;}.cls-5{stroke:#2c3246;}</style></defs><circle class="cls-1" cx="113.52" cy="16.75" r="4.64"/><rect class="cls-2" x="108.73" y="24.26" width="9.58" height="46.56" rx="4.79"/><path class="cls-1" d="M344.08,96.15h0a3.94,3.94,0,0,0-4-3.94l-5.63,0a.68.68,0,0,1-.68-.67v-3.5a3.94,3.94,0,0,0-3.94-4h-1.1a3.94,3.94,0,0,0-3.94,4v8.08a4,4,0,0,0,3.95,4h11.37A3.94,3.94,0,0,0,344.08,96.15Z" transform="translate(-58.07 -60.81)"/><path class="cls-2" d="M345.36,125.6a3,3,0,0,0-3.6-1.85,9.16,9.16,0,0,1-2.64.36,5.11,5.11,0,0,1-3.91-1.48,5.93,5.93,0,0,1-1.41-4.27V104.92a3,3,0,0,0-3-3h-2.89a3.1,3.1,0,0,0-3.1,3.1v13.54q0,6.33,3.45,9.64t9.78,3.31a17.41,17.41,0,0,0,4.78-.65l.09,0a3.94,3.94,0,0,0,2.44-5.24Z" transform="translate(-58.07 -60.81)"/><path class="cls-3" d="M369.51,110.32,361.1,118a1.65,1.65,0,0,0-.54,1.22v9.31a1.66,1.66,0,0,1-1.66,1.66h-.46a1.65,1.65,0,0,1-1.65-1.66V75.84a1.65,1.65,0,0,1,1.65-1.66h.46a1.66,1.66,0,0,1,1.66,1.66v34.21a1.65,1.65,0,0,0,2.77,1.22l22-20a1.66,1.66,0,0,1,1.12-.44h0a1.66,1.66,0,0,1,1.13,2.87l-12.81,12a1.66,1.66,0,0,0-.17,2.24l15.56,19.59a1.66,1.66,0,0,1-1.3,2.69h-.45a1.63,1.63,0,0,1-1.29-.63l-15.15-19A1.66,1.66,0,0,0,369.51,110.32Z" transform="translate(-58.07 -60.81)"/><path class="cls-3" d="M441.12,127.13q-2.64-2.84-2.64-7.81V75.23A1.56,1.56,0,0,1,440,73.66h.64a1.57,1.57,0,0,1,1.57,1.57v43.63a8.66,8.66,0,0,0,1.74,5.85,6.51,6.51,0,0,0,5.2,2,9.68,9.68,0,0,0,2-.21,1.58,1.58,0,0,1,1.94,1.37h0a1.6,1.6,0,0,1-1.2,1.69,13,13,0,0,1-3.21.4C445.42,130,442.88,129,441.12,127.13Z" transform="translate(-58.07 -60.81)"/><path class="cls-3" d="M491.07,90.73a1.89,1.89,0,0,0-1.89,1.89v34.67a1.89,1.89,0,1,0,3.77,0V92.62A1.89,1.89,0,0,0,491.07,90.73Z" transform="translate(-58.07 -60.81)"/><path class="cls-3" d="M481.56,92.45A18.17,18.17,0,0,0,472.09,90a19.78,19.78,0,0,0-10,2.53,18,18,0,0,0-7,7.09,22.48,22.48,0,0,0,0,20.72,18.29,18.29,0,0,0,7,7.09,19.6,19.6,0,0,0,10,2.57,18.49,18.49,0,0,0,9.58-2.49,16.92,16.92,0,0,0,6.57-7.1l-.08-21A17.72,17.72,0,0,0,481.56,92.45Zm4.53,26.11a15.2,15.2,0,0,1-5.66,5.89,16.66,16.66,0,0,1-16.23,0,15.2,15.2,0,0,1-5.66-5.89,18.92,18.92,0,0,1,0-17.21,15.25,15.25,0,0,1,5.66-5.88,16.59,16.59,0,0,1,16.23,0,15.25,15.25,0,0,1,5.66,5.88,18.92,18.92,0,0,1,0,17.21Z" transform="translate(-58.07 -60.81)"/><path class="cls-3" d="M430.22,90.73a1.89,1.89,0,0,0-1.88,1.89v34.67a1.89,1.89,0,1,0,3.77,0V92.62A1.89,1.89,0,0,0,430.22,90.73Z" transform="translate(-58.07 -60.81)"/><path class="cls-3" d="M420.72,92.45A18.2,18.2,0,0,0,411.25,90a19.79,19.79,0,0,0-10,2.53,18,18,0,0,0-7,7.09,22.48,22.48,0,0,0,0,20.72,18.43,18.43,0,0,0,7,7.09,19.61,19.61,0,0,0,10,2.57,18.52,18.52,0,0,0,9.58-2.5,16.83,16.83,0,0,0,6.57-7.09l-.08-21A17.72,17.72,0,0,0,420.72,92.45Zm4.52,26.11a15.18,15.18,0,0,1-5.65,5.89,16.66,16.66,0,0,1-16.23,0,15.13,15.13,0,0,1-5.66-5.89,18.84,18.84,0,0,1,0-17.21,15.17,15.17,0,0,1,5.66-5.88,16.59,16.59,0,0,1,16.23,0,15.22,15.22,0,0,1,5.65,5.88,18.84,18.84,0,0,1,0,17.21Z" transform="translate(-58.07 -60.81)"/><path class="cls-2" d="M222.91,72.92a4.49,4.49,0,0,0-4.49,4.49v22a19.64,19.64,0,1,0,0,25V127a4.5,4.5,0,1,0,9,0V77.41A4.49,4.49,0,0,0,222.91,72.92Zm-19.63,51a12.07,12.07,0,1,1,12.07-12.06A12.06,12.06,0,0,1,203.28,124Z" transform="translate(-58.07 -60.81)"/><path class="cls-2" d="M274,96.12a4,4,0,0,0-3.95-4h-.7a3.94,3.94,0,0,0-3.94,3.9l0,2.07a19.63,19.63,0,1,0-.34,27.83v.79h0q0,5.85-2.94,8.71t-9.28,2.88a24.87,24.87,0,0,1-7.8-1.26,24.32,24.32,0,0,1-3.33-1.37,3.91,3.91,0,0,0-5.12,1.52h0a3.92,3.92,0,0,0,1.51,5.5,27,27,0,0,0,4.75,1.83,38.52,38.52,0,0,0,10.49,1.4Q274,146,274,125.69ZM251.4,124a12.07,12.07,0,1,1,12.06-12.06A12.06,12.06,0,0,1,251.4,124Z" transform="translate(-58.07 -60.81)"/><path class="cls-2" d="M296.19,118.05a4.5,4.5,0,0,0,6.25,1.17l16.22-11.11h0a19.59,19.59,0,1,0-.94,13.31,3.36,3.36,0,0,0-3-4.74,4.81,4.81,0,0,0-4.26,2.45,12.06,12.06,0,0,1-22.67-6.22,12.17,12.17,0,0,1,11.72-11.54,11.94,11.94,0,0,1,8.47,3.2l-10.58,7.24A4.5,4.5,0,0,0,296.19,118.05Z" transform="translate(-58.07 -60.81)"/><circle class="cls-1" cx="5.48" cy="5.48" r="5.48"/><path class="cls-4" d="M63.89,98.33v2.34a27.84,27.84,0,1,0,55.67,0" transform="translate(-58.07 -60.81)"/><path class="cls-4" d="M63.55,79.46v5" transform="translate(-58.07 -60.81)"/><path class="cls-5" d="M114.37,85.88" transform="translate(-58.07 -60.81)"/><path class="cls-4" d="M99.78,100.67a27.84,27.84,0,0,0,55.68,0V68.16" transform="translate(-58.07 -60.81)"/><path class="cls-4" d="M119.56,98.76V81.66a9.89,9.89,0,0,0-19.78,0v17.1" transform="translate(-58.07 -60.81)"/></svg>