<svg xmlns="http://www.w3.org/2000/svg" width="143" height="37.046" viewBox="0 0 143 37.046">
  <g id="Group_195" data-name="Group 195" transform="translate(-1207 -24)">
    <g id="logo" transform="translate(1206.994 26.97)">
      <path id="Path_311" data-name="Path 311" d="M3328.438,3761.054a.751.751,0,0,0-.181-.278l-4.178-3.937a2.138,2.138,0,0,0-1.467-.583h-8.632a.646.646,0,0,0-.084,0h-.058a.755.755,0,0,0-.278.055h0a.764.764,0,0,0-.415.415h0a.76.76,0,0,0-.055.278v9.924h-9.924a.761.761,0,0,0-.761.761v.026a.749.749,0,0,0-.044.262l.089,8.627a2.176,2.176,0,0,0,.63,1.514l4.023,4.081h0a2.8,2.8,0,0,0,2.008.848h17.28a2.811,2.811,0,0,0,2.806-2.809v-17.28A2.793,2.793,0,0,0,3328.438,3761.054Zm-5.4-3.1,2.344,2.208h-7.315l-2.386-2.386h6.931a.619.619,0,0,1,.425.181Zm-15.585,12.895-2.425-2.386h8.5l2.386,2.386Zm9.538-1.084-2.386-2.386v-8.525l2.386,2.386Zm-13.023,6.824-.073-7.1,2.409,2.362v7.373l-2.144-2.176a.665.665,0,0,1-.192-.452Zm23.705,3.656a1.284,1.284,0,0,1-1.283,1.283H3309.1a1.283,1.283,0,0,1-1.283-1.283v-7.874h9.928a.761.761,0,0,0,.761-.761v-9.926h7.874a1.283,1.283,0,0,1,1.283,1.283Z" transform="translate(-3296.999 -3750.358)" fill="#008aff"/>
      <path id="Path_312" data-name="Path 312" d="M3287.334,3749.537h0a.76.76,0,0,0,.055-.278h0v-9.924h9.924a.759.759,0,0,0,.48-1.349l-3.7-3.64a.762.762,0,0,0-.69-.446H3282.72a.761.761,0,0,0-.761.761v10.587a.744.744,0,0,0,.013.234v.031a.728.728,0,0,0,.052.152.761.761,0,0,0,.123.187v.016l.016.016h0l3.911,3.91a.753.753,0,0,0,.262.166h0a.74.74,0,0,0,.556,0h0A.763.763,0,0,0,3287.334,3749.537Zm-3.853-13.042,2.386,2.386v8.525l-2.386-2.386Zm9.538-1.081,2.425,2.386h-8.5l-2.386-2.386Z" transform="translate(-3281.95 -3733.87)" fill="#008aff"/>
      <path id="Path_319" data-name="Path 319" d="M3441.6,3849.244a2.1,2.1,0,0,1-.092.635,1.4,1.4,0,0,1-.262.5,1.226,1.226,0,0,1-.452.328,1.564,1.564,0,0,1-.627.118,1.622,1.622,0,0,1-.606-.1,1.106,1.106,0,0,1-.43-.3,1.268,1.268,0,0,1-.262-.478,2.226,2.226,0,0,1-.084-.638,2.142,2.142,0,0,1,.089-.635,1.38,1.38,0,0,1,.262-.5,1.211,1.211,0,0,1,.449-.325,1.58,1.58,0,0,1,.63-.115,1.619,1.619,0,0,1,.606.1,1.108,1.108,0,0,1,.431.3,1.3,1.3,0,0,1,.262.48A2.175,2.175,0,0,1,3441.6,3849.244Zm-.525.034a2.1,2.1,0,0,0-.042-.433,1.065,1.065,0,0,0-.142-.357.7.7,0,0,0-.262-.241,1.012,1.012,0,0,0-.814-.008.723.723,0,0,0-.262.231,1.027,1.027,0,0,0-.16.352,1.807,1.807,0,0,0-.052.444,2.138,2.138,0,0,0,.042.436,1.025,1.025,0,0,0,.142.354.712.712,0,0,0,.262.241.878.878,0,0,0,.417.089.89.89,0,0,0,.394-.082.726.726,0,0,0,.262-.228.986.986,0,0,0,.157-.352,1.851,1.851,0,0,0,.047-.446Z" transform="translate(-3397.614 -3817.824)" fill="#231f20"/>
      <path id="Path_320" data-name="Path 320" d="M3459.827,3850.656a.07.07,0,0,1,0,.042.1.1,0,0,1-.042.028.288.288,0,0,1-.079.019h-.254a.275.275,0,0,1-.079-.019.1.1,0,0,1-.039-.028.069.069,0,0,1,0-.042V3849a1.62,1.62,0,0,0-.037-.388.819.819,0,0,0-.11-.263.482.482,0,0,0-.186-.163.6.6,0,0,0-.263-.055.67.67,0,0,0-.388.139,2.1,2.1,0,0,0-.407.4v1.968a.069.069,0,0,1,0,.042.1.1,0,0,1-.039.029.3.3,0,0,1-.079.019h-.255a.334.334,0,0,1-.079-.018.093.093,0,0,1-.04-.029.077.077,0,0,1,0-.042v-2.819a.085.085,0,0,1,0-.042.083.083,0,0,1,.037-.032.211.211,0,0,1,.071-.019h.231a.19.19,0,0,1,.071.019.1.1,0,0,1,.037.032.075.075,0,0,1,0,.042v.373a1.738,1.738,0,0,1,.475-.391,1.021,1.021,0,0,1,.478-.124,1.048,1.048,0,0,1,.475.095.859.859,0,0,1,.313.262,1.014,1.014,0,0,1,.17.373,2.207,2.207,0,0,1,.052.525Z" transform="translate(-3411.384 -3817.793)" fill="#231f20"/>
      <path id="Path_321" data-name="Path 321" d="M3475.543,3846.934a.069.069,0,0,1,0,.042.1.1,0,0,1-.039.029.3.3,0,0,1-.079.018h-.255a.331.331,0,0,1-.079-.018.086.086,0,0,1-.039-.029.077.077,0,0,1,0-.042v-4.2a.083.083,0,0,1,0-.044.08.08,0,0,1,.039-.031.32.32,0,0,1,.079-.018h.255a.293.293,0,0,1,.079.019.089.089,0,0,1,.039.031.077.077,0,0,1,0,.045Z" transform="translate(-3424.365 -3814.07)" fill="#231f20"/>
      <path id="Path_322" data-name="Path 322" d="M3485.8,3843.749a.339.339,0,0,1-.068.247.533.533,0,0,1-.512,0,.335.335,0,0,1-.068-.241.341.341,0,0,1,.068-.247.369.369,0,0,1,.263-.065.364.364,0,0,1,.249.065A.333.333,0,0,1,3485.8,3843.749Zm-.061,3.769a.068.068,0,0,1,0,.042.1.1,0,0,1-.039.029.312.312,0,0,1-.079.019h-.255a.323.323,0,0,1-.079-.019.05.05,0,0,1-.04-.071V3844.7a.077.077,0,0,1,0-.039.084.084,0,0,1,.04-.031.348.348,0,0,1,.079-.019h.254a.311.311,0,0,1,.079.019.093.093,0,0,1,.039.031.067.067,0,0,1,0,.039Z" transform="translate(-3431.815 -3814.66)" fill="#231f20"/>
      <path id="Path_323" data-name="Path 323" d="M3498.457,3850.656a.07.07,0,0,1,0,.042.1.1,0,0,1-.042.028.293.293,0,0,1-.079.019h-.255a.275.275,0,0,1-.079-.019.1.1,0,0,1-.039-.028.069.069,0,0,1,0-.042V3849a1.6,1.6,0,0,0-.037-.388.808.808,0,0,0-.11-.263.48.48,0,0,0-.186-.163.593.593,0,0,0-.262-.055.671.671,0,0,0-.388.139,2.107,2.107,0,0,0-.407.4v1.968a.069.069,0,0,1,0,.042.1.1,0,0,1-.039.029.292.292,0,0,1-.079.018h-.255a.315.315,0,0,1-.079-.018.093.093,0,0,1-.039-.029.084.084,0,0,1,0-.042v-2.819a.082.082,0,0,1,0-.042.085.085,0,0,1,.036-.032.212.212,0,0,1,.071-.019h.231a.187.187,0,0,1,.071.019.1.1,0,0,1,.037.032.08.08,0,0,1,0,.042v.373a1.737,1.737,0,0,1,.475-.391,1.022,1.022,0,0,1,.478-.124,1.048,1.048,0,0,1,.475.095.854.854,0,0,1,.312.262,1.015,1.015,0,0,1,.171.373,2.246,2.246,0,0,1,.052.525Z" transform="translate(-3439.876 -3817.793)" fill="#231f20"/>
      <path id="Path_324" data-name="Path 324" d="M3515.47,3849.107a.215.215,0,0,1-.061.173.212.212,0,0,1-.139.052h-1.855a1.721,1.721,0,0,0,.047.423.809.809,0,0,0,.157.323.712.712,0,0,0,.286.208,1.139,1.139,0,0,0,.43.071,1.76,1.76,0,0,0,.36-.032,2.081,2.081,0,0,0,.262-.073c.076-.026.139-.052.189-.073a.313.313,0,0,1,.113-.031.072.072,0,0,1,.039,0,.067.067,0,0,1,.026.034.23.23,0,0,1,.013.06.762.762,0,0,1,0,.094.69.69,0,0,1,0,.071v.052a.142.142,0,0,1-.016.042.163.163,0,0,1-.029.037.45.45,0,0,1-.1.055,1.447,1.447,0,0,1-.218.076,3.027,3.027,0,0,1-.312.068,2.277,2.277,0,0,1-.378.029,1.74,1.74,0,0,1-.609-.1,1.127,1.127,0,0,1-.441-.289,1.234,1.234,0,0,1-.263-.48,2.251,2.251,0,0,1-.092-.669,2.1,2.1,0,0,1,.095-.653,1.375,1.375,0,0,1,.262-.491,1.177,1.177,0,0,1,.427-.31,1.4,1.4,0,0,1,.559-.108,1.356,1.356,0,0,1,.564.108,1.069,1.069,0,0,1,.383.286,1.148,1.148,0,0,1,.22.423,1.842,1.842,0,0,1,.071.525Zm-.525-.152a.942.942,0,0,0-.181-.638.689.689,0,0,0-.564-.231.743.743,0,0,0-.336.071.734.734,0,0,0-.241.192.88.88,0,0,0-.152.278,1.145,1.145,0,0,0-.06.331Z" transform="translate(-3452.266 -3817.779)" fill="#231f20"/>
      <path id="Path_325" data-name="Path 325" d="M3542.164,3849.938a.9.9,0,0,1-.079.386.79.79,0,0,1-.226.283,1.03,1.03,0,0,1-.352.176,1.6,1.6,0,0,1-.449.061,1.719,1.719,0,0,1-.525-.084,1.263,1.263,0,0,1-.184-.076.532.532,0,0,1-.11-.071.179.179,0,0,1-.05-.087.592.592,0,0,1-.016-.152.566.566,0,0,1,0-.1.341.341,0,0,1,.015-.066.076.076,0,0,1,.026-.037.078.078,0,0,1,.04,0,.221.221,0,0,1,.1.042,1.519,1.519,0,0,0,.166.092,1.544,1.544,0,0,0,.233.092,1.024,1.024,0,0,0,.31.042.927.927,0,0,0,.239-.029.575.575,0,0,0,.184-.084.369.369,0,0,0,.121-.139.44.44,0,0,0,.042-.2.324.324,0,0,0-.06-.2.59.59,0,0,0-.16-.144,1.309,1.309,0,0,0-.226-.11l-.262-.1a2.546,2.546,0,0,1-.262-.121.989.989,0,0,1-.226-.165.757.757,0,0,1-.16-.231.786.786,0,0,1-.06-.323.8.8,0,0,1,.063-.318.731.731,0,0,1,.191-.262.966.966,0,0,1,.32-.184,1.326,1.326,0,0,1,.449-.068,1.369,1.369,0,0,1,.226.018,1.535,1.535,0,0,1,.2.047.982.982,0,0,1,.155.06.648.648,0,0,1,.1.058.182.182,0,0,1,.045.045.145.145,0,0,1,.016.042v.058a.6.6,0,0,1,0,.084.724.724,0,0,1,0,.092.221.221,0,0,1-.016.066.075.075,0,0,1-.026.037.056.056,0,0,1-.034,0,.175.175,0,0,1-.082-.034,1.141,1.141,0,0,0-.136-.073,1.587,1.587,0,0,0-.2-.074.909.909,0,0,0-.263-.034.819.819,0,0,0-.231.029.437.437,0,0,0-.165.084.348.348,0,0,0-.1.131.4.4,0,0,0-.032.163.334.334,0,0,0,.063.2.6.6,0,0,0,.163.144,1.38,1.38,0,0,0,.229.113l.263.1c.089.035.176.074.262.118a.975.975,0,0,1,.231.16.718.718,0,0,1,.16.226A.743.743,0,0,1,3542.164,3849.938Z" transform="translate(-3472.396 -3817.846)" fill="#231f20"/>
      <path id="Path_326" data-name="Path 326" d="M3557.98,3846.934a.068.068,0,0,1,0,.042.094.094,0,0,1-.04.029.293.293,0,0,1-.079.019h-.254a.292.292,0,0,1-.079-.018.1.1,0,0,1-.042-.029.069.069,0,0,1,0-.042v-1.651a1.624,1.624,0,0,0-.037-.389.816.816,0,0,0-.11-.262.476.476,0,0,0-.187-.163.593.593,0,0,0-.262-.055.667.667,0,0,0-.389.139,2.1,2.1,0,0,0-.407.4v1.968a.069.069,0,0,1,0,.042.1.1,0,0,1-.042.029.312.312,0,0,1-.079.018h-.255a.328.328,0,0,1-.079-.018.087.087,0,0,1-.039-.029.076.076,0,0,1,0-.042v-4.192a.086.086,0,0,1,0-.044.08.08,0,0,1,.039-.031.328.328,0,0,1,.079-.018h.255a.288.288,0,0,1,.079.019.091.091,0,0,1,.042.031.077.077,0,0,1,0,.044v1.688a1.675,1.675,0,0,1,.446-.349.993.993,0,0,1,.454-.115,1.062,1.062,0,0,1,.475.094.85.85,0,0,1,.312.262,1.023,1.023,0,0,1,.171.373,2.231,2.231,0,0,1,.052.525Z" transform="translate(-3483.775 -3814.07)" fill="#231f20"/>
      <path id="Path_327" data-name="Path 327" d="M3575.2,3849.244a2.1,2.1,0,0,1-.092.635,1.393,1.393,0,0,1-.262.5,1.23,1.23,0,0,1-.451.328,1.574,1.574,0,0,1-.627.118,1.62,1.62,0,0,1-.606-.1,1.1,1.1,0,0,1-.43-.3,1.266,1.266,0,0,1-.262-.478,2.228,2.228,0,0,1-.084-.638,2.142,2.142,0,0,1,.089-.635,1.378,1.378,0,0,1,.262-.5,1.215,1.215,0,0,1,.449-.326,1.585,1.585,0,0,1,.63-.115,1.619,1.619,0,0,1,.606.1,1.105,1.105,0,0,1,.43.3,1.288,1.288,0,0,1,.263.48A2.184,2.184,0,0,1,3575.2,3849.244Zm-.525.034a2.129,2.129,0,0,0-.042-.433,1.048,1.048,0,0,0-.142-.357.7.7,0,0,0-.262-.241.881.881,0,0,0-.417-.089.891.891,0,0,0-.4.081.727.727,0,0,0-.262.231,1.059,1.059,0,0,0-.16.352,1.8,1.8,0,0,0-.052.444,2.121,2.121,0,0,0,.042.436,1.034,1.034,0,0,0,.142.354.716.716,0,0,0,.263.241.877.877,0,0,0,.417.089.888.888,0,0,0,.393-.082.721.721,0,0,0,.262-.228.983.983,0,0,0,.158-.352,1.867,1.867,0,0,0,.047-.446Z" transform="translate(-3496.15 -3817.824)" fill="#231f20"/>
      <path id="Path_328" data-name="Path 328" d="M3593.521,3849.207a2.54,2.54,0,0,1-.079.664,1.444,1.444,0,0,1-.233.5,1.058,1.058,0,0,1-.383.315,1.181,1.181,0,0,1-.525.11,1.023,1.023,0,0,1-.231-.026.877.877,0,0,1-.207-.079,1.208,1.208,0,0,1-.2-.134q-.1-.081-.213-.191v1.409a.074.074,0,0,1,0,.045.088.088,0,0,1-.042.031.272.272,0,0,1-.079.019,1.131,1.131,0,0,1-.129,0,1.084,1.084,0,0,1-.126,0,.291.291,0,0,1-.079-.019.082.082,0,0,1-.042-.031.085.085,0,0,1,0-.045v-3.937a.09.09,0,0,1,0-.045.081.081,0,0,1,.036-.029.241.241,0,0,1,.071-.018h.215a.223.223,0,0,1,.071.018.091.091,0,0,1,.039.029.088.088,0,0,1,0,.045v.378a2.838,2.838,0,0,1,.247-.229,1.457,1.457,0,0,1,.239-.16,1.119,1.119,0,0,1,.247-.1,1.172,1.172,0,0,1,.787.087.982.982,0,0,1,.352.325,1.459,1.459,0,0,1,.2.48A2.587,2.587,0,0,1,3593.521,3849.207Zm-.525.06a2.6,2.6,0,0,0-.034-.417,1.22,1.22,0,0,0-.113-.359.671.671,0,0,0-.215-.262.579.579,0,0,0-.336-.095.672.672,0,0,0-.2.029.8.8,0,0,0-.2.094,1.379,1.379,0,0,0-.21.168,2.532,2.532,0,0,0-.234.262v1.121a2.247,2.247,0,0,0,.407.4.679.679,0,0,0,.4.139.585.585,0,0,0,.336-.095.714.714,0,0,0,.226-.262,1.259,1.259,0,0,0,.128-.352,1.906,1.906,0,0,0,.029-.367Z" transform="translate(-3509.846 -3817.801)" fill="#231f20"/>
      <path id="Path_329" data-name="Path 329" d="M3608.932,3843.749a.341.341,0,0,1-.068.247.534.534,0,0,1-.512,0,.335.335,0,0,1-.068-.242.344.344,0,0,1,.068-.247.37.37,0,0,1,.263-.065.361.361,0,0,1,.25.065.333.333,0,0,1,.068.241Zm-.061,3.769a.062.062,0,0,1,0,.042.1.1,0,0,1-.042.029.32.32,0,0,1-.079.018h-.254a.312.312,0,0,1-.079-.018.088.088,0,0,1-.042-.029.075.075,0,0,1,0-.042V3844.7a.078.078,0,0,1,0-.04.082.082,0,0,1,.042-.031.321.321,0,0,1,.079-.019h.254a.3.3,0,0,1,.079.018.1.1,0,0,1,.042.032.073.073,0,0,1,0,.04Z" transform="translate(-3522.629 -3814.659)" fill="#231f20"/>
      <path id="Path_330" data-name="Path 330" d="M3621.573,3850.656a.069.069,0,0,1,0,.042.1.1,0,0,1-.039.029.315.315,0,0,1-.079.019h-.255a.292.292,0,0,1-.079-.018.1.1,0,0,1-.042-.029.069.069,0,0,1,0-.042v-1.651a1.609,1.609,0,0,0-.037-.388.8.8,0,0,0-.11-.262.476.476,0,0,0-.186-.163.591.591,0,0,0-.262-.055.663.663,0,0,0-.388.139,2.092,2.092,0,0,0-.407.4v1.968a.069.069,0,0,1,0,.042.1.1,0,0,1-.042.029.29.29,0,0,1-.079.018h-.255a.312.312,0,0,1-.079-.018.092.092,0,0,1-.042-.029.078.078,0,0,1,0-.042v-2.819a.084.084,0,0,1,0-.042.088.088,0,0,1,.037-.031.215.215,0,0,1,.071-.019h.231a.189.189,0,0,1,.071.019.1.1,0,0,1,.037.031.082.082,0,0,1,0,.042v.373a1.729,1.729,0,0,1,.475-.391,1.02,1.02,0,0,1,.478-.123,1.06,1.06,0,0,1,.475.094.852.852,0,0,1,.312.262,1.021,1.021,0,0,1,.17.373,2.232,2.232,0,0,1,.052.525Z" transform="translate(-3530.675 -3817.793)" fill="#231f20"/>
      <path id="Path_331" data-name="Path 331" d="M3638.167,3847.995a.314.314,0,0,1-.029.158.086.086,0,0,1-.076.047h-.4a.64.64,0,0,1,.152.25.909.909,0,0,1,.045.283,1.118,1.118,0,0,1-.079.433.864.864,0,0,1-.223.318.993.993,0,0,1-.346.2,1.361,1.361,0,0,1-.443.068,1.155,1.155,0,0,1-.328-.045.681.681,0,0,1-.239-.115.481.481,0,0,0-.092.128.371.371,0,0,0-.037.166.215.215,0,0,0,.1.181.49.49,0,0,0,.262.079l.735.032a1.517,1.517,0,0,1,.386.058.956.956,0,0,1,.3.147.678.678,0,0,1,.2.233.692.692,0,0,1,.071.323.865.865,0,0,1-.082.37.845.845,0,0,1-.249.307,1.259,1.259,0,0,1-.428.21,2.181,2.181,0,0,1-.614.076,2.489,2.489,0,0,1-.58-.058,1.247,1.247,0,0,1-.394-.157.61.61,0,0,1-.223-.239.675.675,0,0,1-.068-.3.776.776,0,0,1,.026-.2.72.72,0,0,1,.076-.184.9.9,0,0,1,.129-.168,1.562,1.562,0,0,1,.176-.157.551.551,0,0,1-.226-.2.479.479,0,0,1-.073-.263.726.726,0,0,1,.079-.341,1.137,1.137,0,0,1,.194-.262.923.923,0,0,1-.152-.262.968.968,0,0,1-.055-.352,1.091,1.091,0,0,1,.081-.433.915.915,0,0,1,.226-.323.988.988,0,0,1,.346-.2,1.327,1.327,0,0,1,.441-.071,1.9,1.9,0,0,1,.239.013,1.663,1.663,0,0,1,.208.04h.85a.087.087,0,0,1,.079.052A.363.363,0,0,1,3638.167,3847.995Zm-.549,2.974a.317.317,0,0,0-.149-.281.752.752,0,0,0-.4-.1l-.729-.026a1.351,1.351,0,0,0-.165.15.817.817,0,0,0-.1.134.462.462,0,0,0-.052.126.6.6,0,0,0-.013.129.334.334,0,0,0,.207.307,1.292,1.292,0,0,0,.575.1,1.456,1.456,0,0,0,.394-.044.763.763,0,0,0,.262-.121.443.443,0,0,0,.139-.173.5.5,0,0,0,.04-.2Zm-.262-2.231a.615.615,0,0,0-.157-.449.6.6,0,0,0-.449-.16.629.629,0,0,0-.262.05.521.521,0,0,0-.184.136.576.576,0,0,0-.11.2.785.785,0,0,0-.037.239.551.551,0,0,0,.6.6.675.675,0,0,0,.262-.047.505.505,0,0,0,.186-.134.565.565,0,0,0,.11-.2.779.779,0,0,0,.045-.236Z" transform="translate(-3542.697 -3817.825)" fill="#231f20"/>
      <path id="Path_332" data-name="Path 332" d="M3665.082,3850.73a.065.065,0,0,1-.026.055.172.172,0,0,1-.068.029.664.664,0,0,1-.128,0,.708.708,0,0,1-.129,0,.153.153,0,0,1-.071-.029.07.07,0,0,1-.021-.055v-.281a1.394,1.394,0,0,1-.412.307,1.092,1.092,0,0,1-.48.11,1.317,1.317,0,0,1-.4-.058.868.868,0,0,1-.307-.168.757.757,0,0,1-.2-.262.9.9,0,0,1-.071-.362.845.845,0,0,1,.1-.415.814.814,0,0,1,.278-.291,1.362,1.362,0,0,1,.443-.173,2.746,2.746,0,0,1,.591-.058h.388v-.218a1.1,1.1,0,0,0-.034-.289.5.5,0,0,0-.11-.207.483.483,0,0,0-.2-.126.922.922,0,0,0-.3-.042,1.2,1.2,0,0,0-.344.044,1.872,1.872,0,0,0-.262.1c-.076.037-.139.071-.191.1a.263.263,0,0,1-.116.045.073.073,0,0,1-.044,0,.1.1,0,0,1-.031-.037.2.2,0,0,1-.021-.065.541.541,0,0,1,0-.087.534.534,0,0,1,0-.123.182.182,0,0,1,.053-.087.686.686,0,0,1,.144-.094,1.565,1.565,0,0,1,.239-.1,2.171,2.171,0,0,1,.294-.076,1.746,1.746,0,0,1,.323-.029,1.7,1.7,0,0,1,.525.068.843.843,0,0,1,.344.2.788.788,0,0,1,.192.331,1.6,1.6,0,0,1,.06.459Zm-.525-1.286h-.441a1.67,1.67,0,0,0-.37.037.762.762,0,0,0-.262.107.443.443,0,0,0-.152.168.506.506,0,0,0-.047.228.454.454,0,0,0,.139.349.548.548,0,0,0,.391.128.722.722,0,0,0,.378-.1,1.623,1.623,0,0,0,.365-.315Z" transform="translate(-3562.817 -3817.866)" fill="#231f20"/>
      <path id="Path_333" data-name="Path 333" d="M3681.573,3850.247v.092a.326.326,0,0,1,0,.065.246.246,0,0,1-.019.047.3.3,0,0,1-.05.061.778.778,0,0,1-.134.1,1.268,1.268,0,0,1-.21.1,1.558,1.558,0,0,1-.262.073,1.417,1.417,0,0,1-.283.029,1.359,1.359,0,0,1-.538-.1,1.014,1.014,0,0,1-.394-.294,1.33,1.33,0,0,1-.241-.472,2.282,2.282,0,0,1-.084-.646,2.234,2.234,0,0,1,.1-.717,1.356,1.356,0,0,1,.278-.491,1.1,1.1,0,0,1,.417-.283,1.42,1.42,0,0,1,.525-.092,1.377,1.377,0,0,1,.263.026,1.421,1.421,0,0,1,.234.066,1.033,1.033,0,0,1,.189.094.735.735,0,0,1,.121.092.384.384,0,0,1,.052.06.21.21,0,0,1,.024.053.318.318,0,0,1,0,.068c0,.024,0,.056,0,.094a.365.365,0,0,1-.029.171.081.081,0,0,1-.068.047.18.18,0,0,1-.108-.052,1.662,1.662,0,0,0-.155-.115,1.179,1.179,0,0,0-.226-.115.865.865,0,0,0-.315-.052.653.653,0,0,0-.572.286,1.452,1.452,0,0,0-.2.832,1.965,1.965,0,0,0,.052.478.987.987,0,0,0,.152.344.627.627,0,0,0,.247.2.788.788,0,0,0,.333.068.814.814,0,0,0,.313-.055,1.336,1.336,0,0,0,.234-.124c.066-.045.122-.086.165-.12a.2.2,0,0,1,.1-.055.062.062,0,0,1,.037,0,.1.1,0,0,1,.026.042.352.352,0,0,1,.016.076C3681.571,3850.168,3681.573,3850.2,3681.573,3850.247Z" transform="translate(-3575.051 -3817.817)" fill="#231f20"/>
      <path id="Path_334" data-name="Path 334" d="M3696.773,3850.247v.092a.293.293,0,0,1,0,.065.231.231,0,0,1-.019.047.3.3,0,0,1-.049.061.782.782,0,0,1-.134.1,1.266,1.266,0,0,1-.21.1,1.571,1.571,0,0,1-.262.073,1.419,1.419,0,0,1-.284.029,1.359,1.359,0,0,1-.538-.1,1.017,1.017,0,0,1-.394-.294,1.33,1.33,0,0,1-.241-.472,2.273,2.273,0,0,1-.084-.646,2.228,2.228,0,0,1,.1-.717,1.349,1.349,0,0,1,.278-.491,1.1,1.1,0,0,1,.417-.283,1.421,1.421,0,0,1,.524-.092,1.382,1.382,0,0,1,.263.026,1.413,1.413,0,0,1,.233.066,1.02,1.02,0,0,1,.189.094.715.715,0,0,1,.121.092.389.389,0,0,1,.053.06.207.207,0,0,1,.023.053.265.265,0,0,1,0,.068v.094a.365.365,0,0,1-.029.171.081.081,0,0,1-.068.047.18.18,0,0,1-.107-.052,1.7,1.7,0,0,0-.155-.115,1.17,1.17,0,0,0-.226-.115.868.868,0,0,0-.315-.052.653.653,0,0,0-.572.286,1.449,1.449,0,0,0-.2.832,1.965,1.965,0,0,0,.053.478.988.988,0,0,0,.152.344.628.628,0,0,0,.247.2.789.789,0,0,0,.333.068.813.813,0,0,0,.312-.055,1.337,1.337,0,0,0,.234-.123c.066-.045.122-.086.165-.121a.2.2,0,0,1,.1-.055.062.062,0,0,1,.037,0,.094.094,0,0,1,.026.042.313.313,0,0,1,.016.076C3696.773,3850.168,3696.773,3850.2,3696.773,3850.247Z" transform="translate(-3586.262 -3817.817)" fill="#231f20"/>
      <path id="Path_335" data-name="Path 335" d="M3712.389,3849.106a.215.215,0,0,1-.06.173.209.209,0,0,1-.139.052h-1.856a1.758,1.758,0,0,0,.047.422.82.82,0,0,0,.157.323.712.712,0,0,0,.286.208,1.154,1.154,0,0,0,.43.071,1.778,1.778,0,0,0,.36-.032,2.082,2.082,0,0,0,.262-.073c.076-.026.139-.052.189-.073a.308.308,0,0,1,.113-.031.068.068,0,0,1,.04,0,.073.073,0,0,1,.026.034.246.246,0,0,1,.013.061.871.871,0,0,1,0,.094c0,.024,0,.047,0,.071v.053a.135.135,0,0,1-.016.042.156.156,0,0,1-.029.037.464.464,0,0,1-.1.055,1.465,1.465,0,0,1-.218.076,2.983,2.983,0,0,1-.312.068,2.279,2.279,0,0,1-.378.029,1.747,1.747,0,0,1-.609-.1,1.128,1.128,0,0,1-.441-.289,1.235,1.235,0,0,1-.263-.48,2.231,2.231,0,0,1-.092-.669,2.088,2.088,0,0,1,.094-.654,1.38,1.38,0,0,1,.262-.491,1.181,1.181,0,0,1,.428-.31,1.4,1.4,0,0,1,.559-.108,1.354,1.354,0,0,1,.564.107,1.067,1.067,0,0,1,.383.286,1.148,1.148,0,0,1,.22.423,1.846,1.846,0,0,1,.071.525Zm-.525-.152a.942.942,0,0,0-.181-.638.692.692,0,0,0-.564-.231.746.746,0,0,0-.336.071.732.732,0,0,0-.241.192.87.87,0,0,0-.152.278,1.147,1.147,0,0,0-.061.331Z" transform="translate(-3597.503 -3817.779)" fill="#231f20"/>
      <path id="Path_336" data-name="Path 336" d="M3728.694,3849.938a.9.9,0,0,1-.079.386.786.786,0,0,1-.228.284,1.028,1.028,0,0,1-.349.176,1.593,1.593,0,0,1-.449.061,1.719,1.719,0,0,1-.525-.084,1.254,1.254,0,0,1-.184-.076.534.534,0,0,1-.11-.071.179.179,0,0,1-.05-.087.592.592,0,0,1-.016-.152.566.566,0,0,1,0-.1.306.306,0,0,1,.016-.066.046.046,0,0,1,.065-.037.221.221,0,0,1,.1.042,1.519,1.519,0,0,0,.166.092,1.481,1.481,0,0,0,.234.092,1.037,1.037,0,0,0,.31.042.927.927,0,0,0,.239-.029.57.57,0,0,0,.184-.084.369.369,0,0,0,.121-.139.434.434,0,0,0,.042-.2.324.324,0,0,0-.06-.2.586.586,0,0,0-.16-.144,1.322,1.322,0,0,0-.226-.11l-.263-.1a2.546,2.546,0,0,1-.262-.121.992.992,0,0,1-.229-.165.74.74,0,0,1-.16-.231.779.779,0,0,1-.061-.323.817.817,0,0,1,.063-.318.741.741,0,0,1,.192-.262.963.963,0,0,1,.32-.183,1.328,1.328,0,0,1,.449-.068,1.375,1.375,0,0,1,.226.018,1.592,1.592,0,0,1,.2.047,1,1,0,0,1,.155.06.671.671,0,0,1,.1.058.18.18,0,0,1,.045.044.166.166,0,0,1,.016.042v.058a.6.6,0,0,1,0,.084.724.724,0,0,1,0,.092.219.219,0,0,1-.016.066.081.081,0,0,1-.026.037.056.056,0,0,1-.034,0,.173.173,0,0,1-.082-.034,1.141,1.141,0,0,0-.136-.073,1.594,1.594,0,0,0-.2-.074.908.908,0,0,0-.262-.034.819.819,0,0,0-.231.029.443.443,0,0,0-.166.084.36.36,0,0,0-.1.131.4.4,0,0,0-.031.163.329.329,0,0,0,.063.205.6.6,0,0,0,.163.144,1.362,1.362,0,0,0,.229.113l.262.1q.134.052.263.118a.984.984,0,0,1,.231.16.722.722,0,0,1,.16.226A.737.737,0,0,1,3728.694,3849.938Z" transform="translate(-3609.97 -3817.846)" fill="#231f20"/>
      <path id="Path_337" data-name="Path 337" d="M3743.1,3849.938a.892.892,0,0,1-.079.386.79.79,0,0,1-.229.284,1.023,1.023,0,0,1-.349.176,1.593,1.593,0,0,1-.449.061,1.721,1.721,0,0,1-.525-.084,1.243,1.243,0,0,1-.184-.076.526.526,0,0,1-.11-.071.181.181,0,0,1-.05-.087.593.593,0,0,1-.016-.152.678.678,0,0,1,0-.1.338.338,0,0,1,.016-.066.069.069,0,0,1,.026-.037.072.072,0,0,1,.039,0,.223.223,0,0,1,.1.042,1.469,1.469,0,0,0,.165.092,1.5,1.5,0,0,0,.234.092,1.038,1.038,0,0,0,.31.042.928.928,0,0,0,.239-.029.571.571,0,0,0,.183-.084.367.367,0,0,0,.121-.139.444.444,0,0,0,.042-.2.326.326,0,0,0-.06-.2.587.587,0,0,0-.16-.144,1.3,1.3,0,0,0-.226-.11l-.262-.1a2.628,2.628,0,0,1-.263-.121,1.007,1.007,0,0,1-.228-.165.753.753,0,0,1-.16-.231.787.787,0,0,1-.06-.323.8.8,0,0,1,.063-.318.734.734,0,0,1,.191-.262.97.97,0,0,1,.32-.184,1.329,1.329,0,0,1,.449-.068,1.372,1.372,0,0,1,.226.018,1.587,1.587,0,0,1,.2.047,1.021,1.021,0,0,1,.155.06.685.685,0,0,1,.1.058.174.174,0,0,1,.044.044.151.151,0,0,1,.016.042v.058a.689.689,0,0,1,0,.084.827.827,0,0,1,0,.092.227.227,0,0,1-.016.066.08.08,0,0,1-.026.037.057.057,0,0,1-.034,0,.173.173,0,0,1-.081-.034,1.145,1.145,0,0,0-.136-.073,1.573,1.573,0,0,0-.2-.074.91.91,0,0,0-.262-.034.819.819,0,0,0-.231.029.441.441,0,0,0-.166.084.352.352,0,0,0-.1.131.4.4,0,0,0-.031.163.329.329,0,0,0,.063.205.6.6,0,0,0,.163.144,1.353,1.353,0,0,0,.229.113l.262.1q.134.052.262.118a.989.989,0,0,1,.231.16.721.721,0,0,1,.16.226A.74.74,0,0,1,3743.1,3849.938Z" transform="translate(-3620.599 -3817.846)" fill="#231f20"/>
      <path id="Path_338" data-name="Path 338" d="M3758.445,3849.244a2.089,2.089,0,0,1-.092.635,1.4,1.4,0,0,1-.262.5,1.226,1.226,0,0,1-.451.328,1.574,1.574,0,0,1-.627.118,1.62,1.62,0,0,1-.606-.1,1.1,1.1,0,0,1-.43-.3,1.268,1.268,0,0,1-.262-.478,2.226,2.226,0,0,1-.084-.638,2.142,2.142,0,0,1,.089-.635,1.378,1.378,0,0,1,.262-.5,1.217,1.217,0,0,1,.449-.326,1.587,1.587,0,0,1,.63-.115,1.622,1.622,0,0,1,.606.1,1.105,1.105,0,0,1,.43.3,1.291,1.291,0,0,1,.262.48A2.183,2.183,0,0,1,3758.445,3849.244Zm-.525.034a2.112,2.112,0,0,0-.042-.433,1.048,1.048,0,0,0-.142-.357.694.694,0,0,0-.262-.241,1.013,1.013,0,0,0-.814-.008.727.727,0,0,0-.262.231,1.05,1.05,0,0,0-.16.352,1.773,1.773,0,0,0-.052.444,2.121,2.121,0,0,0,.042.436,1.029,1.029,0,0,0,.142.354.715.715,0,0,0,.263.241.877.877,0,0,0,.417.089.893.893,0,0,0,.394-.082.726.726,0,0,0,.263-.228.994.994,0,0,0,.157-.352,1.863,1.863,0,0,0,.047-.446Z" transform="translate(-3631.305 -3817.824)" fill="#231f20"/>
      <path id="Path_339" data-name="Path 339" d="M3775.868,3848.093v.116a.306.306,0,0,1,0,.073.109.109,0,0,1-.024.042.054.054,0,0,1-.039.013.182.182,0,0,1-.061-.013l-.081-.029-.1-.026a.558.558,0,0,0-.121,0,.408.408,0,0,0-.152.031.619.619,0,0,0-.157.1,1.293,1.293,0,0,0-.173.192,3.408,3.408,0,0,0-.2.291v1.832a.069.069,0,0,1,0,.042.108.108,0,0,1-.042.029.293.293,0,0,1-.079.019h-.254a.311.311,0,0,1-.079-.019.087.087,0,0,1-.042-.029.077.077,0,0,1,0-.042V3847.9a.087.087,0,0,1,0-.042.085.085,0,0,1,.037-.031.226.226,0,0,1,.071-.019h.23a.186.186,0,0,1,.071.019.1.1,0,0,1,.037.032.08.08,0,0,1,0,.042v.41a2.189,2.189,0,0,1,.218-.263,1.229,1.229,0,0,1,.191-.168.606.606,0,0,1,.181-.084.709.709,0,0,1,.181-.023h.092l.107.019.1.029a.207.207,0,0,1,.063.032.088.088,0,0,1,.026.029.229.229,0,0,1,0,.037.452.452,0,0,1,0,.063C3775.868,3848,3775.868,3848.032,3775.868,3848.093Z" transform="translate(-3645.045 -3817.854)" fill="#231f20"/>
      <path id="Path_340" data-name="Path 340" d="M3787.892,3843.749a.34.34,0,0,1-.068.247.533.533,0,0,1-.512,0,.332.332,0,0,1-.068-.241.34.34,0,0,1,.068-.247.366.366,0,0,1,.262-.065.36.36,0,0,1,.249.065A.331.331,0,0,1,3787.892,3843.749Zm-.06,3.769a.069.069,0,0,1,0,.042.1.1,0,0,1-.042.029.312.312,0,0,1-.079.019h-.255a.335.335,0,0,1-.079-.018.087.087,0,0,1-.042-.029.078.078,0,0,1,0-.042V3844.7a.077.077,0,0,1,0-.039.086.086,0,0,1,.042-.031.348.348,0,0,1,.079-.019h.255a.308.308,0,0,1,.079.019.093.093,0,0,1,.042.031.077.077,0,0,1,0,.039Z" transform="translate(-3654.62 -3814.66)" fill="#231f20"/>
      <path id="Path_341" data-name="Path 341" d="M3799.869,3849.106a.215.215,0,0,1-.06.173.211.211,0,0,1-.139.052h-1.856a1.758,1.758,0,0,0,.047.422.821.821,0,0,0,.158.323.71.71,0,0,0,.286.208,1.149,1.149,0,0,0,.43.071,1.777,1.777,0,0,0,.36-.032,2.071,2.071,0,0,0,.262-.073c.076-.026.139-.052.189-.073a.308.308,0,0,1,.113-.031.068.068,0,0,1,.04,0,.069.069,0,0,1,.026.034.242.242,0,0,1,.013.06.871.871,0,0,1,0,.094c0,.024,0,.047,0,.071v.053a.13.13,0,0,1-.016.042.162.162,0,0,1-.029.037.459.459,0,0,1-.1.055,1.479,1.479,0,0,1-.218.076,2.969,2.969,0,0,1-.312.068,2.279,2.279,0,0,1-.378.029,1.747,1.747,0,0,1-.609-.1,1.128,1.128,0,0,1-.441-.289,1.229,1.229,0,0,1-.263-.48,2.231,2.231,0,0,1-.092-.669,2.088,2.088,0,0,1,.094-.654,1.386,1.386,0,0,1,.262-.491,1.181,1.181,0,0,1,.428-.31,1.4,1.4,0,0,1,.559-.108,1.356,1.356,0,0,1,.564.107,1.072,1.072,0,0,1,.383.286,1.151,1.151,0,0,1,.22.423,1.846,1.846,0,0,1,.071.525Zm-.525-.152a.942.942,0,0,0-.181-.638.691.691,0,0,0-.564-.231.747.747,0,0,0-.336.071.737.737,0,0,0-.241.192.875.875,0,0,0-.152.278,1.147,1.147,0,0,0-.061.331Z" transform="translate(-3662.023 -3817.779)" fill="#231f20"/>
      <path id="Path_342" data-name="Path 342" d="M3816.174,3849.938a.884.884,0,0,1-.079.386.78.78,0,0,1-.228.283,1.023,1.023,0,0,1-.349.176,1.593,1.593,0,0,1-.449.061,1.719,1.719,0,0,1-.525-.084,1.232,1.232,0,0,1-.184-.076.534.534,0,0,1-.11-.071.179.179,0,0,1-.05-.087.592.592,0,0,1-.016-.152.566.566,0,0,1,0-.1.306.306,0,0,1,.016-.066.046.046,0,0,1,.065-.037.221.221,0,0,1,.1.042,1.519,1.519,0,0,0,.166.092,1.481,1.481,0,0,0,.234.092,1.037,1.037,0,0,0,.31.042.927.927,0,0,0,.239-.029.575.575,0,0,0,.184-.084.369.369,0,0,0,.121-.139.44.44,0,0,0,.042-.2.324.324,0,0,0-.06-.2.586.586,0,0,0-.16-.144,1.3,1.3,0,0,0-.226-.11l-.263-.1a2.546,2.546,0,0,1-.262-.121,1,1,0,0,1-.229-.165.749.749,0,0,1-.16-.231.8.8,0,0,1-.061-.323.817.817,0,0,1,.063-.318.738.738,0,0,1,.192-.262.968.968,0,0,1,.32-.184,1.328,1.328,0,0,1,.449-.068,1.349,1.349,0,0,1,.226.018,1.553,1.553,0,0,1,.2.047,1,1,0,0,1,.155.06.63.63,0,0,1,.1.058.18.18,0,0,1,.045.044.15.15,0,0,1,.016.042v.058a.6.6,0,0,1,0,.084.724.724,0,0,1,0,.092.234.234,0,0,1-.016.066.086.086,0,0,1-.026.037.056.056,0,0,1-.034,0,.173.173,0,0,1-.082-.034,1.141,1.141,0,0,0-.136-.073,1.566,1.566,0,0,0-.2-.074.906.906,0,0,0-.262-.034.819.819,0,0,0-.231.029.443.443,0,0,0-.166.084.366.366,0,0,0-.1.131.4.4,0,0,0-.031.163.329.329,0,0,0,.063.205.6.6,0,0,0,.163.144,1.361,1.361,0,0,0,.229.113l.262.1q.134.052.263.118a.985.985,0,0,1,.231.16.718.718,0,0,1,.16.226A.737.737,0,0,1,3816.174,3849.938Z" transform="translate(-3674.491 -3817.846)" fill="#231f20"/>
    </g>
    <text id="Widget_Kala" data-name="Widget Kala" transform="translate(1350 43)" fill="#2c3246" font-size="18" font-family="SegoeUI, Segoe UI"><tspan x="-95.933" y="0">Widget Kala</tspan></text>
  </g>
</svg>
